<svg width="1066" height="197" viewBox="0 0 1066 197" fill="none" xmlns="http://www.w3.org/2000/svg">
<path d="M619.6 192.198C639.2 192.198 652.2 183.998 657.2 169.398L658.8 169.798C656.3 185.198 660.3 192.198 680.7 192.198C683.7 192.198 686.6 191.998 689.1 191.498L692 174.298H688.3C684.3 174.198 683 173.098 683 167.898V131.598C683 111.398 669.2 101.898 639.8 101.898C608.7 101.898 593 113.798 594.4 133.798L624.5 135.298C623.7 124.198 628.9 119.198 639.3 119.198C648.6 119.198 653.1 122.898 653.1 131.098V135.498L630.8 139.298C608.5 143.098 592 150.098 592 168.698V168.898C592 183.698 602 192.198 619.6 192.198ZM632.3 172.798C625.8 172.798 622.4 170.298 622.4 165.498V165.298C622.4 158.198 628.9 155.098 641 152.798L653 150.498V153.398C653.1 164.498 643.4 172.798 632.3 172.798Z" fill="#48A35C"/>
<path d="M695.5 190H725.6V156.8C725.6 134.9 731.7 128.1 748.9 126.7L761.1 125.8L758.2 101C740.6 102.7 732.3 108.1 722.4 125.6L720.8 124.8C724.6 114.6 725.6 109.9 725.5 104H695.5V190V190Z" fill="#48A35C"/>
<path d="M794.6 191.401C811.8 191.401 822.8 183.501 828.8 169.101L830.5 169.801C827.6 178.601 826.2 185.501 826.1 189.901H856.4V75.3008H826.3V97.9008C826.3 107.001 827.5 114.101 830.6 123.901L829 124.601C822.9 110.201 811.7 102.101 794.7 102.101C770.7 102.101 758.4 116.801 758.4 145.501V148.201C758.3 176.901 770.6 191.401 794.6 191.401ZM806.9 173.301C794.8 173.301 788.6 165.301 788.6 149.401V144.201C788.6 128.201 794.8 120.201 806.9 120.201C819.5 120.201 826.2 128.601 826.2 144.801V148.801C826.2 165.001 819.5 173.301 806.9 173.301Z" fill="#48A35C"/>
<path d="M910.2 174.301C898.2 174.301 891.1 167.701 890.6 153.901H957.7C958.2 150.101 958.4 146.701 958.4 143.201C958.4 116.501 941.5 101.801 910.3 101.801C877.6 101.801 860.2 117.101 860.2 145.101V148.901C860.2 177.201 877.6 192.101 909.9 192.101C938.6 192.101 954.9 182.101 958.4 162.501L928.5 160.001C926.7 170.101 920.5 174.301 910.2 174.301ZM910.1 119.701C921.7 119.701 927.9 125.701 927.9 136.901V137.901H890.9C892 125.901 898.7 119.701 910.1 119.701Z" fill="#48A35C"/>
<path d="M962.4 190.002H992.5V150.202C992.5 133.002 1000 122.702 1012.4 122.702C1021.6 122.702 1026.2 127.602 1026.2 137.202V190.002H1056.3V129.602C1056.3 111.702 1045.9 102.602 1026.4 102.602C1009 102.602 997.1 110.102 989.4 125.602L987.8 124.902C991.2 115.602 992.3 110.402 992.2 104.102H962.3V190.002H962.4Z" fill="#48A35C"/>
<path fill-rule="evenodd" clip-rule="evenodd" d="M366.3 134.002C398.8 134.002 415.8 118.502 415.8 89.5016V88.2016C415.8 59.2016 398.8 43.6016 366.3 43.6016C333.8 43.6016 316.8 59.2016 316.8 88.2016V89.5016C316.8 118.502 333.8 134.002 366.3 134.002ZM347.5 91.5016C347.5 107.302 353.8 115.202 366.3 115.202C378.7 115.202 385.1 107.302 385.1 91.5016V86.0016C385.1 70.1016 378.7 62.2016 366.3 62.2016C353.9 62.2016 347.5 70.1016 347.5 86.0016V91.5016Z" fill="#557DBF"/>
<path fill-rule="evenodd" clip-rule="evenodd" d="M276.8 133.202C300.8 133.202 313.1 118.602 313.1 90.0016V87.3016C313.1 58.6016 300.8 43.9016 276.8 43.9016C259.8 43.9016 248.6 52.0016 242.5 66.4016L240.9 65.7016C243.9 55.9016 245.2 48.8016 245.2 39.7016V17.1016H215V131.702H245.3C245.2 127.302 243.7 120.402 240.9 111.602L242.6 110.902C248.6 125.402 259.6 133.202 276.8 133.202ZM245.1 90.6016C245.1 106.702 251.8 115.102 264.4 115.102C276.5 115.102 282.7 107.102 282.7 91.2016V86.0016C282.7 70.0016 276.5 62.0016 264.4 62.0016C251.8 62.0016 245.1 70.4016 245.1 86.6016V90.6016Z" fill="#557DBF"/>
<path d="M490.5 191.799C522 191.799 541.6 176.899 552.8 147.599L555.7 148.599C549.9 168.599 548.1 179.699 548.7 189.099H587.3V91.9992H499.6V121.599H542.1C538.7 146.899 526.6 160.299 504.9 160.299C480.2 160.299 480.5 135.899 480.5 100.099L456.2 107.599C456.2 72.4992 480.8 48.3992 506.7 48.3992C527.5 48.3992 538.6 58.3992 540.7 79.6992L585.4 72.9992C581.2 36.4992 555.6 17.1992 506.7 17.1992C450.4 17.1992 422 46.4992 422 104.199V104.699C422 162.399 445.2 191.799 490.5 191.799Z" fill="#48A35C"/>
<path d="M515.8 71.3016C515.8 78.6016 509.9 84.5016 502.6 84.5016C495.3 84.5016 489.4 78.6016 489.4 71.3016C489.4 64.0016 495.3 58.1016 502.6 58.1016C509.8 58.1016 515.8 64.0016 515.8 71.3016Z" fill="#48A35C"/>
<path fill-rule="evenodd" clip-rule="evenodd" d="M419.5 160.599C411.6 160.999 403.3 161.299 394.6 161.599C311.9 163.899 213.8 156.799 169.7 153.599C155.1 152.599 146.4 151.899 146.1 152.199C144.8 153.299 158.1 157.499 175.5 161.599C192.9 165.699 222.9 172.199 241.9 175.999C261 179.799 306.5 185.399 343 188.499C383.7 191.899 423.4 192.699 445.4 190.599C447.1 190.399 448.8 190.299 450.6 189.999C441 185.899 432.9 179.699 426.3 171.299C423.8 167.999 421.5 164.399 419.5 160.599Z" fill="#EE3226"/>
<path fill-rule="evenodd" clip-rule="evenodd" d="M162.6 134.002C195.1 134.002 212.1 118.502 212.1 89.5016V88.2016C212.1 59.2016 195.1 43.6016 162.6 43.6016C130.1 43.6016 113.1 59.2016 113.1 88.2016V89.5016C113.1 118.502 130.1 134.002 162.6 134.002ZM143.9 91.5016C143.9 107.302 150.2 115.202 162.7 115.202C175.1 115.202 181.5 107.302 181.5 91.5016V86.0016C181.5 70.1016 175.1 62.2016 162.7 62.2016C150.3 62.2016 143.9 70.1016 143.9 86.0016V91.5016Z" fill="#FCBA24"/>
<path fill-rule="evenodd" clip-rule="evenodd" d="M13 131.799H43.5V85.5992H60.4C71 85.5992 74.1 90.1992 76.5 100.999L79 111.899C81.5 122.699 83.3 127.999 85.9 131.799H119.5L119.8 129.599C115.8 126.699 112.9 121.899 109.6 109.799L106.2 97.7992C102.8 85.6992 98.8 81.2992 88.8 78.5992V76.9992C105.1 74.8992 113.7 65.6992 113.7 49.7992V49.4992C113.7 28.3992 99.5 17.1992 72 17.1992H13V131.799ZM43.5 37.4992V66.4992H66.1C77.4 66.4992 82.9 62.3992 82.9 52.1992V51.9992C82.9 41.7992 77.5 37.5992 66.4 37.5992H43.5V37.4992Z" fill="#FCBA24"/>
</svg>
